<?xml version="1.0" standalone="no"?>
<svg viewBox="0 0 200 200" xmlns="http://www.w3.org/2000/svg">
  <path fill="#FF0066" d="M34.9,-64.2C44.3,-55,50.3,-43.8,58.4,-32.7C66.5,-21.7,76.6,-10.9,78.7,1.2C80.8,13.3,74.9,26.5,67.4,38.7C60,50.8,51,61.9,39.6,71.3C28.1,80.6,14,88.3,0.9,86.8C-12.3,85.3,-24.6,74.6,-35.9,65.1C-47.1,55.6,-57.4,47.3,-62.4,36.7C-67.5,26,-67.3,13,-70.4,-1.8C-73.5,-16.6,-79.8,-33.2,-73.9,-42.4C-68,-51.6,-50,-53.4,-35.6,-59.7C-21.3,-66,-10.6,-76.8,1.1,-78.7C12.7,-80.5,25.5,-73.3,34.9,-64.2Z" transform="translate(100 100)" />
</svg>
